<svg width="71" height="77" viewBox="0 0 71 77" fill="none" xmlns="http://www.w3.org/2000/svg">
<g opacity="0.3">
<path d="M0 46.944C0 66.6148 15.8939 76.2758 35.5 76.2758C55.1061 76.2758 71 66.6148 71 46.944C71 27.2732 55.1061 11.3269 35.5 11.3269C15.8939 11.3269 0 27.2732 0 46.944Z" fill="white"/>
<path d="M39.1317 43.9701C39.1317 48.426 42.2022 52.0383 45.9897 52.0383C49.7772 52.0383 52.8477 48.426 52.8477 43.9701C52.8477 39.5141 49.7772 40.1391 45.9897 40.1391C42.2022 40.1391 39.1317 39.5141 39.1317 43.9701Z" fill="#000030"/>
<path d="M18.1543 43.9718C18.1543 48.4277 21.1344 52.04 24.8105 52.04C28.4867 52.04 31.4668 48.4277 31.4668 43.9718C31.4668 39.5159 28.4867 39.9378 24.8105 39.9378C21.1344 39.9378 18.1543 39.5159 18.1543 43.9718Z" fill="#000030"/>
<path d="M39.5352 56.9144H31.0636" stroke="black" stroke-width="4" stroke-linecap="round"/>
<path d="M27.5908 0.932495C29.175 0.932532 30.7242 1.39544 32.0488 2.26355L34.5879 4.48425C33.28 4.1709 31.9372 4.01163 30.5869 4.0116H30.0342C29.6923 4.0116 29.3522 4.06445 29.0264 4.16785L27.5039 4.65027C26.5088 4.96607 25.4314 4.89923 24.4834 4.46179C24.127 4.2973 23.8985 3.94021 23.8984 3.54773V2.92957L23.9023 2.81726C23.9428 2.2616 24.2818 1.76707 24.793 1.53113C25.3305 1.283 25.903 1.11852 26.4902 1.04285L27.3477 0.932495H27.5908Z" fill="#52DD63" stroke="#52DD63"/>
<path d="M38.9043 12.939C38.9043 14.5958 37.5612 15.939 35.9043 15.939C34.2474 15.939 32.9043 14.5958 32.9043 12.939H35.9043H38.9043ZM32.9043 6.08101V3.08101H38.9043V6.08101H35.9043H32.9043ZM35.9043 12.939H32.9043V6.08101H35.9043H38.9043V12.939H35.9043Z" fill="#52DD63"/>
<path d="M43.8135 0.932495C42.2293 0.932532 40.6801 1.39544 39.3555 2.26355L36.8164 4.48425C38.1243 4.1709 39.4671 4.01163 40.8174 4.0116H41.3701C41.712 4.0116 42.0521 4.06445 42.3779 4.16785L43.9004 4.65027C44.8955 4.96607 45.9729 4.89923 46.9209 4.46179C47.2773 4.2973 47.5058 3.94021 47.5059 3.54773V2.92957L47.502 2.81726C47.4615 2.2616 47.1225 1.76707 46.6113 1.53113C46.0738 1.283 45.5013 1.11852 44.9141 1.04285L44.0566 0.932495H43.8135Z" fill="#52DD63" stroke="#52DD63"/>
<path d="M35.9587 4.65936L36.5909 4.15499C39.034 2.20567 42.209 1.42547 45.2774 2.0204" stroke="#3BA347" stroke-linecap="round"/>
<path d="M35.4924 4.65936L34.8603 4.15499C32.4171 2.20567 29.2422 1.42547 26.1738 2.0204" stroke="#3BA347" stroke-linecap="round"/>
</g>
<path opacity="0.3" d="M50.2211 49.8542C50.2457 49.7538 50.3815 49.7372 50.4295 49.8288L52.3459 53.4873C52.931 54.6045 53.1175 55.8879 52.8744 57.1254L52.8671 57.1626C52.7213 57.9051 52.0703 58.4407 51.3135 58.4407H51.1461C50.6208 58.4407 50.1389 58.1491 49.8952 57.6838C49.1975 56.3517 49.0095 54.8109 49.3666 53.3502L50.2211 49.8542Z" fill="#798FFF"/>
</svg>
