<svg width="202" height="314" viewBox="0 0 202 314" fill="none" xmlns="http://www.w3.org/2000/svg">
<path d="M134.162 158.634L149.072 173.186C157.047 180.97 163.757 189.952 168.959 199.807L175.603 212.393C177.258 215.527 180.287 217.703 183.785 218.271C186.672 218.74 189.264 220.31 191.018 222.651L191.183 222.872C192.061 224.045 192.717 225.368 193.118 226.777L193.186 227.017C194.016 229.929 193.829 233.037 192.656 235.829L191.103 239.529C189.47 243.42 186.448 246.564 182.626 248.35L181.069 249.078C180.755 249.225 180.428 249.338 180.091 249.417L176.235 250.319C173.461 250.968 170.562 250.847 167.852 249.971L166.187 249.432C160.901 247.723 157.256 242.881 157.077 237.328C157.014 235.397 156.527 233.502 155.651 231.78L143.613 208.131C140.639 202.288 136.586 197.06 131.669 192.723L127.638 189.167C119.602 182.078 120.049 169.412 128.566 162.907L134.162 158.634Z" fill="white"/>
<path d="M150.408 206.694C140.44 181.896 117.718 164.528 91.1742 161.417L64.8228 158.328L47.6759 235.335C44.0235 251.737 47.1389 268.919 56.3175 282.995C64.5976 295.694 78.445 303.673 93.5834 304.469L99.2818 304.769C124.052 306.072 147.099 291.347 156.657 268.458C162.674 254.05 162.86 237.668 157.036 223.181L150.408 206.694Z" fill="white"/>
<path d="M64.5102 162.702L50.0785 177.729C42.3593 185.767 35.9431 194.961 31.0619 204.979L24.8284 217.773C23.2761 220.959 20.319 223.232 16.841 223.913C13.9708 224.475 11.4302 226.128 9.75343 228.524L9.59497 228.751C8.75531 229.951 8.14269 231.294 7.78747 232.715L7.72695 232.957C6.99247 235.895 7.27977 238.996 8.54157 241.749L10.2136 245.396C11.9717 249.232 15.0933 252.277 18.9716 253.939L20.5514 254.616C20.8694 254.752 21.2007 254.855 21.5399 254.923L25.4226 255.699C28.2163 256.258 31.1095 256.044 33.7906 255.081L35.4372 254.489C40.665 252.61 44.1512 247.652 44.1512 242.096C44.1512 240.164 44.5766 238.255 45.3972 236.505L56.6643 212.479C59.4481 206.543 63.3293 201.187 68.1034 196.693L72.0174 193.009C79.8207 185.664 78.964 173.018 70.2413 166.793L64.5102 162.702Z" fill="white"/>
<path d="M84.5986 1.57788C88.6856 1.57788 92.6829 2.77635 96.0957 5.02417L104.896 12.7214C100.743 11.3782 96.4008 10.6892 92.0254 10.6892H90.6562C89.8848 10.6892 89.1172 10.8074 88.3818 11.0408L84.6074 12.239C81.9644 13.0777 79.1035 12.8981 76.5859 11.7361C75.4406 11.2074 74.707 10.061 74.707 8.79956V7.26831C74.707 5.49092 75.7407 3.87551 77.3545 3.13062C78.7552 2.48408 80.2463 2.05437 81.7764 1.85718L83.9463 1.57788H84.5986Z" fill="#52DD63" stroke="#52DD63"/>
<path d="M12.207 116.368C12.207 165.13 51.606 189.078 100.207 189.078C148.808 189.078 188.207 165.13 188.207 116.368C188.207 67.6068 148.808 28.0779 100.207 28.0779C51.606 28.0779 12.207 67.6068 12.207 116.368Z" fill="white"/>
<ellipse cx="17" cy="20" rx="17" ry="20" transform="matrix(-1 0 0 1 172.207 88.9998)" fill="#000030"/>
<ellipse cx="16.5" cy="20" rx="16.5" ry="20" transform="matrix(-1 0 0 1 119.207 88.9998)" fill="#000030"/>
<path d="M139.207 141.078H118.207" stroke="black" stroke-width="4" stroke-linecap="round"/>
<path d="M108.207 32.0779C108.207 33.7347 106.864 35.0779 105.207 35.0779C103.55 35.0779 102.207 33.7347 102.207 32.0779H105.207H108.207ZM102.207 15.0779V12.0779H108.207V15.0779H105.207H102.207ZM105.207 32.0779H102.207V15.0779H105.207H108.207V32.0779H105.207Z" fill="#52DD63"/>
<path d="M124.815 1.57788C120.728 1.57788 116.731 2.77635 113.318 5.02417L104.518 12.7214C108.671 11.3782 113.013 10.6892 117.389 10.6892H118.758C119.529 10.6892 120.297 10.8074 121.032 11.0408L124.807 12.239C127.45 13.0777 130.311 12.8981 132.828 11.7361C133.973 11.2074 134.707 10.061 134.707 8.79956V7.26831C134.707 5.49092 133.673 3.87551 132.06 3.13062C130.659 2.48408 129.168 2.05437 127.638 1.85718L125.468 1.57788H124.815Z" fill="#52DD63" stroke="#52DD63"/>
<path d="M105.342 11.5499L106.909 10.2996C112.965 5.46749 120.835 3.53347 128.441 5.00824" stroke="#3BA347" stroke-linecap="round"/>
<path d="M104.189 11.5499L102.622 10.2996C96.5653 5.46749 88.695 3.53347 81.0888 5.00824" stroke="#3BA347" stroke-linecap="round"/>
</svg>
