<svg width="118" height="127" viewBox="0 0 118 127" fill="none" xmlns="http://www.w3.org/2000/svg">
<ellipse cx="32.4448" cy="76.6455" rx="11.7553" ry="13.6362" fill="#000030"/>
<path d="M-0.0001297 77.7284C-0.0001297 110.297 26.3151 126.292 58.7765 126.292C91.238 126.292 117.553 110.297 117.553 77.7284C117.553 45.1598 91.238 18.7578 58.7765 18.7578C26.3151 18.7578 -0.0001297 45.1598 -0.0001297 77.7284Z" fill="white"/>
<path d="M65.457 94.22H51.4308" stroke="black" stroke-width="4" stroke-linecap="round"/>
<path d="M45.6826 1.2207C48.3762 1.22079 51.0105 2.00964 53.2607 3.48926L58.542 8.1084C55.98 7.35805 53.3205 6.97366 50.6426 6.97363H49.7275C49.1954 6.97364 48.6664 7.05589 48.1592 7.2168L45.6377 8.0166C43.9118 8.56429 42.0434 8.44732 40.3994 7.68848C39.6934 7.36247 39.2412 6.65558 39.2412 5.87793V4.85547C39.2412 3.73308 39.894 2.71257 40.9131 2.24219C41.8333 1.81747 42.8132 1.53579 43.8184 1.40625L45.2578 1.2207H45.6826Z" fill="#52DD63" stroke="#52DD63"/>
<path d="M62.4473 21.4248C62.4473 23.0817 61.1041 24.4248 59.4473 24.4248C57.7904 24.4248 56.4473 23.0817 56.4473 21.4248H59.4473H62.4473ZM56.4473 10.0702V7.07022H62.4473V10.0702H59.4473H56.4473ZM59.4473 21.4248H56.4473V10.0702H59.4473H62.4473V21.4248H59.4473Z" fill="#52DD63"/>
<path d="M72.542 1.2207C69.8484 1.22079 67.2141 2.00964 64.9639 3.48926L59.6826 8.1084C62.2446 7.35805 64.9041 6.97366 67.582 6.97363H68.4971C69.0292 6.97364 69.5582 7.05589 70.0654 7.2168L72.5869 8.0166C74.3128 8.56429 76.1812 8.44732 77.8252 7.68848C78.5312 7.36247 78.9834 6.65558 78.9834 5.87793V4.85547C78.9834 3.73308 78.3306 2.71257 77.3115 2.24219C76.3913 1.81747 75.4114 1.53579 74.4062 1.40625L72.9668 1.2207H72.542Z" fill="#52DD63" stroke="#52DD63"/>
<path d="M59.5368 7.71437L60.5835 6.87929C64.6286 3.65184 69.8853 2.36007 74.9656 3.3451" stroke="#3BA347" stroke-linecap="round"/>
<path d="M58.7669 7.71437L57.7202 6.87929C53.6751 3.65184 48.4184 2.36007 43.3381 3.3451" stroke="#3BA347" stroke-linecap="round"/>
<path d="M78.6508 55.2597C79.4088 53.8699 81.4045 53.8699 82.1625 55.2597L86.2509 62.7563C86.5386 63.2837 87.0481 63.6539 87.6386 63.7645L96.0317 65.3363C97.5878 65.6277 98.2045 67.5257 97.1169 68.6761L91.2506 74.8809C90.8378 75.3175 90.6432 75.9165 90.7205 76.5123L91.8193 84.9802C92.023 86.5502 90.4085 87.7233 88.9783 87.0444L81.2643 83.3826C80.7216 83.125 80.0918 83.125 79.549 83.3826L71.8351 87.0444C70.4049 87.7233 68.7903 86.5502 68.994 84.9802L70.0928 76.5123C70.1701 75.9165 69.9755 75.3175 69.5628 74.8809L63.6965 68.6761C62.6089 67.5257 63.2256 65.6277 64.7817 65.3363L73.1747 63.7645C73.7652 63.6539 74.2748 63.2837 74.5624 62.7563L78.6508 55.2597Z" fill="#B419AE"/>
<path d="M35.3911 55.2597C36.1491 53.8699 38.1448 53.8699 38.9028 55.2597L42.9912 62.7563C43.2788 63.2837 43.7883 63.6539 44.3789 63.7645L52.7719 65.3363C54.328 65.6277 54.9447 67.5257 53.8571 68.6761L47.9908 74.8809C47.5781 75.3175 47.3834 75.9165 47.4608 76.5123L48.5595 84.9802C48.7633 86.5502 47.1487 87.7233 45.7185 87.0444L38.0046 83.3826C37.4618 83.125 36.832 83.125 36.2893 83.3826L28.5753 87.0444C27.1451 87.7233 25.5306 86.5502 25.7343 84.9802L26.8331 76.5123C26.9104 75.9165 26.7158 75.3175 26.303 74.8809L20.4367 68.6761C19.3491 67.5257 19.9658 65.6277 21.5219 65.3363L29.9149 63.7645C30.5055 63.6539 31.015 63.2837 31.3027 62.7563L35.3911 55.2597Z" fill="#B419AE"/>
</svg>
