<svg width="170" height="57" viewBox="0 0 170 57" fill="none" xmlns="http://www.w3.org/2000/svg">
<path d="M11.664 21.696C11.664 22.752 12.576 23.328 14.544 24L18.336 25.296C23.904 27.216 26.256 30.336 26.256 34.944C26.256 42.576 20.304 45.36 13.296 45.36C10.032 45.36 5.952 44.784 3.408 42.384C1.824 40.896 1.008 38.592 2.352 36.576C3.024 35.568 4.176 35.088 5.424 35.088C6.864 35.088 7.824 35.664 8.544 36.24C9.744 37.152 11.712 37.728 13.584 37.728C15.456 37.728 16.56 37.008 16.56 35.808C16.56 34.608 15.648 33.936 12.096 32.688L8.784 31.536C3.648 29.76 1.728 26.16 1.728 22.128C1.728 16.224 6.672 12.288 14.064 12.288C17.904 12.288 20.64 13.248 22.464 14.352C24.384 15.504 25.728 17.52 25.056 19.728C24.48 21.552 23.04 22.272 21.456 22.272C20.688 22.272 19.728 21.936 19.344 21.648C17.856 20.448 16.272 19.92 14.208 19.92C12.432 19.92 11.664 20.736 11.664 21.696ZM43.9384 45.36C36.6904 45.36 29.1544 42.096 29.1544 31.728V25.584C29.1544 15.36 36.6904 12.288 42.8344 12.288C49.5064 12.288 56.0824 14.88 56.0824 28.56C56.0824 29.376 55.9864 30.72 55.8424 31.536H38.6584V31.584C38.6584 36.144 41.8264 37.248 44.1304 37.248C46.4824 37.248 47.4904 37.056 48.7864 36.624C49.5064 36.384 50.2264 36 51.0424 35.904C52.6744 35.712 54.2104 36.288 54.8344 37.728C55.8424 40.08 54.6904 42.096 52.3864 43.44C50.8504 44.352 47.4424 45.36 43.9384 45.36ZM42.8824 20.064C40.7704 20.064 38.7064 21.12 38.6584 25.248H46.7704C46.9144 21.12 44.9944 20.064 42.8824 20.064ZM71.3284 45.36C65.2324 45.36 60.3844 42.336 60.3844 32.208V17.088C60.3844 13.776 62.6404 12.288 65.3284 12.288C68.0164 12.288 70.2724 13.776 70.2724 17.088V32.784C70.2724 36.048 72.4324 37.152 74.0644 37.152C75.6484 37.152 77.9044 36.096 77.9044 33.024V17.04C77.9044 13.776 80.1124 12.288 82.7524 12.288C85.4404 12.288 87.6484 13.776 87.6484 17.04V44.592H80.0164L79.4884 41.424C77.7124 43.872 74.7844 45.36 71.3284 45.36ZM119.945 17.088V42.816C119.945 48.096 117.737 54.624 104.825 55.152C103.049 55.248 99.4493 54.768 97.8653 53.856C96.4253 52.992 95.7053 50.928 96.3293 49.248C96.9053 47.712 98.4893 46.704 100.121 46.944C101.513 47.136 103.049 47.376 104.825 47.376C108.905 47.376 110.681 45.216 110.681 43.056V41.952C109.001 43.632 106.697 44.592 103.769 44.592C97.4333 44.592 92.2013 41.568 92.2013 31.536V25.536C92.2013 15.408 97.4813 12.288 103.817 12.288C106.217 12.288 108.857 13.2 110.681 14.976C111.449 13.2 113.225 12.288 115.145 12.288C117.689 12.288 119.945 13.92 119.945 17.088ZM102.089 24.864V32.4C102.089 35.664 104.489 36.768 106.169 36.768C107.801 36.768 110.297 35.712 110.297 32.64V24.624C110.297 21.552 107.801 20.496 106.169 20.496C104.489 20.496 102.089 21.6 102.089 24.864ZM124.264 32.064V25.584C124.264 15.264 131.656 12.288 138.184 12.288C144.568 12.288 152.104 15.264 152.104 25.584V32.064C152.104 42.384 144.568 45.36 138.184 45.36C131.8 45.36 124.264 42.384 124.264 32.064ZM142.456 32.496V25.152C142.456 21.744 140.248 20.4 138.184 20.4C136.12 20.4 133.912 21.744 133.912 25.152V32.496C133.912 35.904 136.12 37.248 138.184 37.248C140.248 37.248 142.456 35.904 142.456 32.496ZM156.623 6.144C156.623 2.976 158.927 1.728 161.615 1.728C164.303 1.728 166.607 2.976 166.607 6.144C166.607 9.312 164.303 10.56 161.615 10.56C158.927 10.56 156.623 9.312 156.623 6.144ZM156.671 44.592V17.424C156.671 14.112 158.927 12.624 161.615 12.624C164.303 12.624 166.559 14.112 166.559 17.424V44.592H156.671Z" fill="white"/>
<rect x="156" width="14" height="12" fill="#0A0A0A"/>
<ellipse cx="161.5" cy="5" rx="5.5" ry="5" fill="#52DD63"/>
</svg>
